<svg version="1.1" id="Layer_1" xmlns="http://www.w3.org/2000/svg" x="0" y="0" viewBox="0 0 186 26" xml:space="preserve"><style>.st0{fill:#0382d4}</style><path class="st0" d="M183 17.5h3v2.7h-3zM52 6.2h2.8v3.6H52zM62.6 4.9h1.8v2.3h-1.8zM55.3 13.9h2.1v2.6h-2.1zM63.8 21.4h1.5v1.9h-1.5zM62.6 2.4h1.1v1.4h-1.1zM57 7.7h1.8V10H57zM60.8 17.7h2.4v3h-2.4zM52.4 17.2h1.1v1.4h-1.1zM57.7 18.1h1.6v2h-1.6zM65 17.4h1v1.2h-1zM58.4 11.9h1.1v1.4h-1.1zM67.6 9.6h1.1V11h-1.1zM54.7 20.1h1.6v2h-1.6zM54 3.3h1.1v1.4H54zM66.9 19.3h1.6v2.1h-1.6zM60.7 1.1h-2.9v4.3h3.4V1.6l-.5-.5zm-.4 3.6h-1.8v-.3h1.8v.3zm.4-.9h-2.2v-.2h2.2v.2zm0-.8h-2.2v-.2h2.2V3zm0-.8h-2.2v-.3h2.2v.3zm0-.6v-.4l.4.4h-.4zM53.2 11.2h-2.9v4.3h3.4v-3.8l-.5-.5zm-.5 3.5H51v-.3h1.8v.3zm.5-.8H51v-.3h2.2v.3zm0-.8H51v-.3h2.2v.3zm0-.8H51V12h2.2v.3zm0-.6v-.4l.4.4h-.4zM66.3 9.3l-1-.9H60v8h6.3V9.3zm-1.8 5.6h-3.3v-.3h3.3v.3zm.8-1.2h-4.1v-.3h4.1v.3zm0-1.1h-4.1v-.3h4.1v.3zm0-1.1h-4.1v-.3h4.1v.3zm0-1.2h-4.1V10h4.1v.3zm0-1v-.7l.8.7h-.8zM70.5 12.5h-2.9v4.3H71V13l-.5-.5zm-.4 3.6h-1.8v-.3h1.8v.3zm.4-.9h-2.2V15h2.2v.2zm0-.8h-2.2v-.3h2.2v.3zm0-.8h-2.2v-.3h2.2v.3zm0-.6v-.4l.5.4h-.5zM67.6 5.6h-1.7v2.5h2.2V6l-.5-.4zm-.4 2h-.9v-.2h.9v.2zm.5-.5h-1.4v-.3h1.4v.3zm0-.6h-1.4v-.3h1.4v.3zm-.1-.4v-.4l.4.4h-.4zM60.9 22.4h-1.7v2.5h2.2v-2.1l-.5-.4zm-.4 2h-.9v-.3h.9v.3zm.6-.5h-1.4v-.3h1.4v.3zm0-.6h-1.4V23h1.4v.3zm-.2-.4v-.4l.5.4h-.5zM32.6 3h5.6c1.4 0 2.7.2 3.9.5 1.2.3 2.3.8 3.2 1.5.9.7 1.6 1.6 2.2 2.7.5 1.1.8 2.4.8 4 0 1.4-.3 2.6-.8 3.7s-1.2 1.9-2.1 2.6c-.9.7-1.9 1.3-3.1 1.6-1.1.2-2.3.4-3.6.4h-6.1V3zm3.7 13.5h2c.9 0 1.7-.1 2.4-.3.7-.2 1.4-.5 1.9-.9s1-.9 1.3-1.6c.3-.7.5-1.5.5-2.4 0-.8-.2-1.6-.5-2.2-.3-.6-.7-1.1-1.3-1.5-.5-.4-1.2-.7-1.9-.9-.7-.2-1.5-.3-2.3-.3h-2.2v10.1zM82 12.1c-.2-.3-.4-.5-.7-.6-.3-.2-.7-.3-1-.3-.9 0-1.6.3-2.1.8s-.8 1.3-.8 2.1c0 .9.3 1.6.8 2.1s1.2.8 2.1.8c.4 0 .7-.1 1-.3.3-.2.5-.4.7-.6l2.4 2.5c-.6.6-1.2 1-2 1.2-.8.2-1.5.3-2.2.3-.9 0-1.7-.1-2.5-.4-.8-.3-1.5-.7-2.1-1.2-.6-.5-1-1.2-1.4-1.9-.3-.8-.5-1.6-.5-2.5 0-.9.2-1.8.5-2.5.3-.8.8-1.4 1.4-1.9.6-.5 1.3-.9 2.1-1.2.8-.3 1.6-.5 2.5-.5.7 0 1.4.1 2.2.3.8.2 1.4.6 2 1.2L82 12.1zM96.4 20h-3.5v-1.6c-.1.2-.3.4-.5.7-.2.2-.4.4-.7.6-.3.2-.6.3-1 .4-.4.1-.8.2-1.2.2-.9 0-1.7-.1-2.2-.4-.6-.3-1-.7-1.3-1.2-.3-.5-.5-1.1-.6-1.8-.1-.7-.2-1.4-.2-2.2V8.3h3.6V15c0 .4.1.7.2 1 .1.3.3.6.6.7.2.2.6.3 1.1.3s.8-.1 1.1-.3c.3-.2.5-.4.7-.7.2-.3.3-.6.3-1s.1-.7.1-1.1V8.3h3.6L96.4 20zM97.1 3h4.3l4.2 11.1L109.9 3h4l-7 17h-3zM115 8.3h3.6V20H115zM131.7 18c-.6.7-1.3 1.3-2.2 1.7-.9.4-1.8.6-2.7.6-.9 0-1.7-.1-2.5-.4-.8-.3-1.5-.7-2.1-1.2-.6-.5-1-1.2-1.4-1.9-.3-.8-.5-1.6-.5-2.5 0-.9.2-1.8.5-2.5.3-.8.8-1.4 1.4-1.9.6-.5 1.3-1 2.1-1.2.8-.3 1.6-.4 2.5-.4.8 0 1.6.1 2.3.4.7.3 1.3.7 1.7 1.2.5.5.8 1.2 1.1 1.9.3.8.4 1.6.4 2.5v1.1h-8.4c.1.7.5 1.2.9 1.7.5.4 1.1.6 1.8.6.6 0 1.1-.1 1.5-.4.4-.3.8-.6 1.1-1l2.5 1.7zm-3.1-5.2c0-.6-.2-1.1-.6-1.6-.4-.4-1-.7-1.6-.7-.4 0-.8.1-1.1.2-.3.1-.6.3-.8.5-.2.2-.4.4-.5.7-.1.3-.2.5-.2.8h4.8zM115.3 2.9h2.8v2.8h-2.8z"/><path class="st0" d="M180.8 17.5h-.5c-.7 0-1.3-.2-1.8-.6-.5-.4-.8-1-.9-1.7h8.4v-1.1c0-.9-.1-1.8-.4-2.5-.3-.8-.6-1.4-1.1-1.9-.5-.5-1.1-1-1.7-1.2-.7-.3-1.4-.4-2.3-.4-.9 0-1.7.1-2.5.4-.8.3-1.5.7-2.1 1.2-.6.5-1 1.2-1.4 1.9-.3.8-.5 1.6-.5 2.5 0 .9.2 1.8.5 2.5.3.8.8 1.4 1.4 1.9.6.5 1.3 1 2.1 1.2.8.3 1.6.4 2.5.4h.3v-2.6zm-3-5.5c.1-.3.3-.5.5-.7.2-.2.5-.4.8-.5.3-.1.7-.2 1.1-.2.7 0 1.2.2 1.6.7.4.4.6 1 .6 1.6h-4.8c0-.4.1-.6.2-.9zM132.4 8.3h3.9l2.3 7.3h.1l2-7.3h3.9l2.2 7.3h.1l2.1-7.3h3.7L148.5 20H145l-2.5-7.8-2.2 7.8h-3.6zM160.6 18.5c-.4.6-1 1.1-1.6 1.3-.7.3-1.4.4-2.1.4-.5 0-1.1-.1-1.6-.2-.5-.2-1-.4-1.3-.7-.4-.3-.7-.7-.9-1.1-.2-.4-.3-1-.3-1.6 0-.7.1-1.2.4-1.7.2-.5.6-.9 1-1.2.4-.3.9-.5 1.5-.7.5-.2 1.1-.3 1.7-.4.6-.1 1.2-.1 1.8-.1h1.6c0-.6-.2-1.2-.7-1.5-.5-.4-1-.6-1.6-.6-.6 0-1.1.1-1.6.4-.5.2-.9.6-1.3 1l-1.9-2c.7-.6 1.5-1.1 2.4-1.4.9-.3 1.8-.5 2.8-.5 1.1 0 1.9.1 2.6.4.7.3 1.2.7 1.6 1.2.4.5.7 1.1.9 1.9.2.7.2 1.6.2 2.6v6h-3.3v-1.5h-.3zm-.9-3.6h-1c-.4 0-.8.1-1.2.2-.4.1-.7.3-1 .5-.3.2-.4.5-.4.9s.2.8.6 1c.4.2.8.3 1.2.3.4 0 .7 0 1-.1.3-.1.6-.2.9-.4.3-.2.5-.4.6-.7.2-.3.2-.6.2-1v-.8h-.9zM165.6 8.3h3.6v1.9c.4-.7.8-1.3 1.4-1.6.5-.4 1.2-.5 2-.5h.6c.2 0 .4 0 .6.1v3.3c-.3-.1-.5-.1-.8-.2-.2 0-.5-.1-.8-.1-.7 0-1.2.1-1.6.3-.4.2-.7.5-.9.8-.2.3-.4.8-.4 1.2-.1.5-.1 1-.1 1.6V20h-3.6V8.3zM22.6 10.6c-.1 0-.2-.1-.3-.1-.3-4-3.4-7.5-7.5-8.1-4.3-.6-8.3 2.2-9.5 6.2-4.3.5-6.9 5.5-4.2 9.2 1.7 2.4 4.3 2.4 6.9 2.4 4.7 0 9.5.2 14.2 0 2.6-.1 4.8-2.1 4.8-4.8-.1-2.6-2-4.5-4.4-4.8zm1.2 5.9c-.5.7-1.2.9-2.1.9h-5.1c-3.6 0-7.3.1-10.9 0-1.7-.1-3-1.3-3-3 0-1.9 1.7-3.1 3.5-3 .4.1 2.1.7 2.7 2.6l2.6-.7C10.8 11 9.1 9.8 8 9.2c.9-2.6 3.4-4.4 6.4-4.1 3.2.4 5.2 3.1 5.2 6.1-.2.1-.4.3-.7.5l-1 .9 1.8 2 1-.9c.3-.3.6-.4.6-.4.3-.1.5-.1.8-.2 1.6.2 2.7 2 1.7 3.4z"/></svg>